<?xml version="1.0" encoding="utf-8"?>
<!-- Generator: Adobe Illustrator 20.1.0, SVG Export Plug-In . SVG Version: 6.00 Build 0)  -->
<svg version="1.1" id="Layer_1" xmlns="http://www.w3.org/2000/svg" xmlns:xlink="http://www.w3.org/1999/xlink" x="0px" y="0px"
	 viewBox="0 0 960 560" style="enable-background:new 0 0 960 560;" xml:space="preserve">
<style type="text/css">
	.st0{fill:#7DC6E2;stroke:#000000;stroke-miterlimit:10;}
	.st1{fill:#A86C24;}
	.st2{fill:#FFFFFF;}
	.st3{fill:none;stroke:#000000;stroke-miterlimit:10;}
	.st4{fill:#0F1B1E;stroke:#000000;stroke-miterlimit:10;}
	.st5{fill:#25A525;stroke:#000000;stroke-miterlimit:10;}
	.st6{fill:#A86C24;stroke:#000000;stroke-miterlimit:10;}
	.st7{font-family:'ChalkboardSE-Regular';}
	.st8{font-size:75.3238px;}
	.st9{fill:#683F13;}
	.st10{fill:#AA9074;}
	.st11{fill:#BFAE9B;}
	.st12{fill:#D6B96E;}
</style>
<rect x="-0.6" y="0.4" class="st0" width="960.6" height="540.4"/>
<g>
	<rect x="209.2" y="215.2" class="st1" width="217.5" height="328"/>
	<path d="M426.2,215.7v327H209.7v-327H426.2 M427.2,214.7H208.7v329h218.5V214.7L427.2,214.7z"/>
</g>
<g>
	<rect x="36.5" y="399.5" class="st1" width="103.3" height="141.5"/>
	<path d="M139.3,400v140.5H37V400H139.3 M140.3,399H36v142.5h104.3V399L140.3,399z"/>
</g>
<g>
	<rect x="141.5" y="286.8" class="st1" width="67.5" height="254.2"/>
	<path d="M208.4,287.3v253.2H142V287.3H208.4 M209.4,286.3H141v255.2h68.5V286.3L209.4,286.3z"/>
</g>
<g>
	<rect x="427.7" y="287.4" class="st1" width="62.2" height="254.2"/>
	<path d="M489.5,287.9v253.2h-61.2V287.9H489.5 M490.5,286.9h-63.2v255.2h63.2V286.9L490.5,286.9z"/>
</g>
<g>
	<rect x="488.9" y="401.6" class="st1" width="99.9" height="139.4"/>
	<path d="M588.2,402.1v138.4h-98.9V402.1H588.2 M589.2,401.1H488.4v140.4h100.9V401.1L589.2,401.1z"/>
</g>
<g>
	<rect x="226.7" y="242.5" class="st2" width="49.5" height="49.5"/>
	<path d="M275.8,243v48.5h-48.5V243H275.8 M276.8,242h-50.5v50.5h50.5V242L276.8,242z"/>
</g>
<g>
	<rect x="226.7" y="242.5" class="st2" width="24.3" height="18.8"/>
	<path d="M250.5,243v17.8h-23.3V243H250.5 M251.5,242h-25.3v19.8h25.3V242L251.5,242z"/>
</g>
<g>
	<rect x="252" y="242.5" class="st2" width="24.3" height="18.8"/>
	<path d="M275.8,243v17.8h-23.3V243H275.8 M276.8,242h-25.3v19.8h25.3V242L276.8,242z"/>
</g>
<g>
	<line class="st3" x1="251.5" y1="242" x2="251.5" y2="292.5"/>
</g>
<g>
	<path class="st2" d="M304.5,540c-4.3,0-7.8-3.5-7.8-7.8v-35.4c0-11.2,9.1-20.3,20.3-20.3h1.9c11.2,0,20.3,9.1,20.3,20.3v35.3
		c0,4.3-3.5,7.8-7.8,7.8H304.5z"/>
	<path d="M318.9,477c10.9,0,19.8,8.9,19.8,19.8v35.3c0,4-3.3,7.3-7.3,7.3h-27c-4,0-7.3-3.3-7.3-7.3v-35.4c0-10.9,8.9-19.8,19.8-19.8
		H318.9 M318.9,476H317c-11.5,0-20.8,9.3-20.8,20.8v35.4c0,4.6,3.7,8.3,8.3,8.3h27c4.6,0,8.3-3.7,8.3-8.3v-35.3
		C339.8,485.3,330.4,476,318.9,476L318.9,476z"/>
</g>
<g>
	<rect x="290.9" y="242.5" class="st2" width="49.5" height="49.5"/>
	<path d="M339.9,243v48.5h-48.5V243H339.9 M340.9,242h-50.5v50.5h50.5V242L340.9,242z"/>
</g>
<g>
	<rect x="290.9" y="244.5" class="st2" width="24.3" height="18.8"/>
	<path d="M314.6,245v17.8h-23.3V245H314.6 M315.6,244h-25.3v19.8h25.3V244L315.6,244z"/>
</g>
<g>
	<rect x="316.1" y="244.5" class="st2" width="24.3" height="18.8"/>
	<path d="M339.9,245v17.8h-23.3V245H339.9 M340.9,244h-25.3v19.8h25.3V244L340.9,244z"/>
</g>
<g>
	<line class="st3" x1="315.6" y1="244" x2="315.6" y2="294.5"/>
</g>
<g>
	<rect x="227.7" y="304.9" class="st2" width="49.5" height="49.5"/>
	<path d="M276.7,305.4v48.5h-48.5v-48.5H276.7 M277.7,304.4h-50.5v50.5h50.5V304.4L277.7,304.4z"/>
</g>
<g>
	<rect x="227.7" y="304.9" class="st2" width="24.3" height="18.8"/>
	<path d="M251.5,305.4v17.8h-23.3v-17.8H251.5 M252.5,304.4h-25.3v19.8h25.3V304.4L252.5,304.4z"/>
</g>
<g>
	<rect x="253" y="304.9" class="st2" width="24.3" height="18.8"/>
	<path d="M276.7,305.4v17.8h-23.3v-17.8H276.7 M277.7,304.4h-25.3v19.8h25.3V304.4L277.7,304.4z"/>
</g>
<g>
	<line class="st3" x1="252.5" y1="304.4" x2="252.5" y2="354.9"/>
</g>
<g>
	<rect x="227.7" y="370.4" class="st2" width="49.5" height="49.5"/>
	<path d="M276.7,370.9v48.5h-48.5v-48.5H276.7 M277.7,369.9h-50.5v50.5h50.5V369.9L277.7,369.9z"/>
</g>
<g>
	<rect x="227.7" y="370.4" class="st2" width="24.3" height="18.8"/>
	<path d="M251.5,370.9v17.8h-23.3v-17.8H251.5 M252.5,369.9h-25.3v19.8h25.3V369.9L252.5,369.9z"/>
</g>
<g>
	<rect x="253" y="370.4" class="st2" width="24.3" height="18.8"/>
	<path d="M276.7,370.9v17.8h-23.3v-17.8H276.7 M277.7,369.9h-25.3v19.8h25.3V369.9L277.7,369.9z"/>
</g>
<g>
	<line class="st3" x1="252.5" y1="369.9" x2="252.5" y2="420.4"/>
</g>
<g>
	<rect x="290.9" y="304.9" class="st2" width="49.5" height="49.5"/>
	<path d="M339.9,305.4v48.5h-48.5v-48.5H339.9 M340.9,304.4h-50.5v50.5h50.5V304.4L340.9,304.4z"/>
</g>
<g>
	<rect x="290.9" y="304.9" class="st2" width="24.3" height="18.8"/>
	<path d="M314.6,305.4v17.8h-23.3v-17.8H314.6 M315.6,304.4h-25.3v19.8h25.3V304.4L315.6,304.4z"/>
</g>
<g>
	<rect x="316.1" y="304.9" class="st2" width="24.3" height="18.8"/>
	<path d="M339.9,305.4v17.8h-23.3v-17.8H339.9 M340.9,304.4h-25.3v19.8h25.3V304.4L340.9,304.4z"/>
</g>
<g>
	<line class="st3" x1="315.6" y1="304.4" x2="315.6" y2="354.9"/>
</g>
<g>
	<rect x="290.9" y="370.4" class="st2" width="49.5" height="49.5"/>
	<path d="M339.9,370.9v48.5h-48.5v-48.5H339.9 M340.9,369.9h-50.5v50.5h50.5V369.9L340.9,369.9z"/>
</g>
<g>
	<rect x="290.9" y="370.4" class="st2" width="24.3" height="18.8"/>
	<path d="M314.6,370.9v17.8h-23.3v-17.8H314.6 M315.6,369.9h-25.3v19.8h25.3V369.9L315.6,369.9z"/>
</g>
<g>
	<rect x="316.1" y="370.4" class="st2" width="24.3" height="18.8"/>
	<path d="M339.9,370.9v17.8h-23.3v-17.8H339.9 M340.9,369.9h-25.3v19.8h25.3V369.9L340.9,369.9z"/>
</g>
<g>
	<line class="st3" x1="315.6" y1="369.9" x2="315.6" y2="420.4"/>
</g>
<g>
	<rect x="354" y="242.5" class="st2" width="49.5" height="49.5"/>
	<path d="M403,243v48.5h-48.5V243H403 M404,242h-50.5v50.5H404V242L404,242z"/>
</g>
<g>
	<rect x="354" y="242.5" class="st2" width="24.3" height="18.8"/>
	<path d="M377.8,243v17.8h-23.3V243H377.8 M378.8,242h-25.3v19.8h25.3V242L378.8,242z"/>
</g>
<g>
	<rect x="379.3" y="242.5" class="st2" width="24.3" height="18.8"/>
	<path d="M403,243v17.8h-23.3V243H403 M404,242h-25.3v19.8H404V242L404,242z"/>
</g>
<g>
	<line class="st3" x1="378.8" y1="242" x2="378.8" y2="292.5"/>
</g>
<g>
	<rect x="354" y="304.9" class="st2" width="49.5" height="49.5"/>
	<path d="M403,305.4v48.5h-48.5v-48.5H403 M404,304.4h-50.5v50.5H404V304.4L404,304.4z"/>
</g>
<g>
	<rect x="354" y="304.9" class="st2" width="24.3" height="18.8"/>
	<path d="M377.8,305.4v17.8h-23.3v-17.8H377.8 M378.8,304.4h-25.3v19.8h25.3V304.4L378.8,304.4z"/>
</g>
<g>
	<rect x="379.3" y="304.9" class="st2" width="24.3" height="18.8"/>
	<path d="M403,305.4v17.8h-23.3v-17.8H403 M404,304.4h-25.3v19.8H404V304.4L404,304.4z"/>
</g>
<g>
	<line class="st3" x1="378.8" y1="304.4" x2="378.8" y2="354.9"/>
</g>
<g>
	<rect x="354" y="367.2" class="st2" width="49.5" height="49.5"/>
	<path d="M403,367.7v48.5h-48.5v-48.5H403 M404,366.7h-50.5v50.5H404V366.7L404,366.7z"/>
</g>
<g>
	<rect x="354" y="367.2" class="st2" width="24.3" height="18.8"/>
	<path d="M377.8,367.7v17.8h-23.3v-17.8H377.8 M378.8,366.7h-25.3v19.8h25.3V366.7L378.8,366.7z"/>
</g>
<g>
	<rect x="379.3" y="367.2" class="st2" width="24.3" height="18.8"/>
	<path d="M403,367.7v17.8h-23.3v-17.8H403 M404,366.7h-25.3v19.8H404V366.7L404,366.7z"/>
</g>
<g>
	<line class="st3" x1="378.8" y1="366.7" x2="378.8" y2="417.2"/>
</g>
<g>
	<rect x="151.8" y="376.5" class="st2" width="19.2" height="19.2"/>
	<path d="M170.6,377v18.2h-18.2V377H170.6 M171.6,376h-20.2v20.2h20.2V376L171.6,376z"/>
</g>
<g>
	<rect x="151.8" y="376.5" class="st2" width="9.1" height="6.9"/>
	<path d="M160.4,377v5.9h-8.1V377H160.4 M161.4,376h-10.1v7.9h10.1V376L161.4,376z"/>
</g>
<g>
	<rect x="161.9" y="376.5" class="st2" width="9.1" height="6.9"/>
	<path d="M170.6,377v5.9h-8.1V377H170.6 M171.6,376h-10.1v7.9h10.1V376L171.6,376z"/>
</g>
<g>
	<line class="st3" x1="161.4" y1="376" x2="161.4" y2="396.2"/>
</g>
<g>
	<rect x="171.9" y="376.5" class="st2" width="19.2" height="19.2"/>
	<path d="M190.6,377v18.2h-18.2V377H190.6 M191.6,376h-20.2v20.2h20.2V376L191.6,376z"/>
</g>
<g>
	<rect x="171.9" y="376.5" class="st2" width="9.1" height="6.9"/>
	<path d="M180.5,377v5.9h-8.1V377H180.5 M181.5,376h-10.1v7.9h10.1V376L181.5,376z"/>
</g>
<g>
	<rect x="182" y="376.5" class="st2" width="9.1" height="6.9"/>
	<path d="M190.6,377v5.9h-8.1V377H190.6 M191.6,376h-10.1v7.9h10.1V376L191.6,376z"/>
</g>
<g>
	<line class="st3" x1="181.5" y1="376" x2="181.5" y2="396.2"/>
</g>
<g>
	<rect x="151.8" y="396.1" class="st2" width="19.2" height="19.2"/>
	<path d="M170.6,396.6v18.2h-18.2v-18.2H170.6 M171.6,395.6h-20.2v20.2h20.2V395.6L171.6,395.6z"/>
</g>
<g>
	<rect x="151.8" y="396.1" class="st2" width="9.1" height="6.9"/>
	<path d="M160.4,396.6v5.9h-8.1v-5.9H160.4 M161.4,395.6h-10.1v7.9h10.1V395.6L161.4,395.6z"/>
</g>
<g>
	<rect x="161.9" y="396.1" class="st2" width="9.1" height="6.9"/>
	<path d="M170.6,396.6v5.9h-8.1v-5.9H170.6 M171.6,395.6h-10.1v7.9h10.1V395.6L171.6,395.6z"/>
</g>
<g>
	<line class="st3" x1="161.4" y1="395.6" x2="161.4" y2="415.9"/>
</g>
<g>
	<rect x="171.9" y="396.1" class="st2" width="19.2" height="19.2"/>
	<path d="M190.6,396.6v18.2h-18.2v-18.2H190.6 M191.6,395.6h-20.2v20.2h20.2V395.6L191.6,395.6z"/>
</g>
<g>
	<rect x="171.9" y="396.1" class="st2" width="9.1" height="6.9"/>
	<path d="M180.5,396.6v5.9h-8.1v-5.9H180.5 M181.5,395.6h-10.1v7.9h10.1V395.6L181.5,395.6z"/>
</g>
<g>
	<rect x="182" y="396.1" class="st2" width="9.1" height="6.9"/>
	<path d="M190.6,396.6v5.9h-8.1v-5.9H190.6 M191.6,395.6h-10.1v7.9h10.1V395.6L191.6,395.6z"/>
</g>
<g>
	<line class="st3" x1="181.5" y1="395.6" x2="181.5" y2="415.9"/>
</g>
<g>
	<rect x="151.8" y="416" class="st2" width="19.2" height="19.2"/>
	<path d="M170.6,416.5v18.2h-18.2v-18.2H170.6 M171.6,415.5h-20.2v20.2h20.2V415.5L171.6,415.5z"/>
</g>
<g>
	<rect x="151.8" y="416" class="st2" width="9.1" height="6.9"/>
	<path d="M160.4,416.5v5.9h-8.1v-5.9H160.4 M161.4,415.5h-10.1v7.9h10.1V415.5L161.4,415.5z"/>
</g>
<g>
	<rect x="161.9" y="416" class="st2" width="9.1" height="6.9"/>
	<path d="M170.6,416.5v5.9h-8.1v-5.9H170.6 M171.6,415.5h-10.1v7.9h10.1V415.5L171.6,415.5z"/>
</g>
<g>
	<line class="st3" x1="161.4" y1="415.5" x2="161.4" y2="435.8"/>
</g>
<g>
	<rect x="171.9" y="416" class="st2" width="19.2" height="19.2"/>
	<path d="M190.6,416.5v18.2h-18.2v-18.2H190.6 M191.6,415.5h-20.2v20.2h20.2V415.5L191.6,415.5z"/>
</g>
<g>
	<rect x="171.9" y="416" class="st2" width="9.1" height="6.9"/>
	<path d="M180.5,416.5v5.9h-8.1v-5.9H180.5 M181.5,415.5h-10.1v7.9h10.1V415.5L181.5,415.5z"/>
</g>
<g>
	<rect x="182" y="416" class="st2" width="9.1" height="6.9"/>
	<path d="M190.6,416.5v5.9h-8.1v-5.9H190.6 M191.6,415.5h-10.1v7.9h10.1V415.5L191.6,415.5z"/>
</g>
<g>
	<line class="st3" x1="181.5" y1="415.5" x2="181.5" y2="435.8"/>
</g>
<g>
	<rect x="151.8" y="436.3" class="st2" width="19.2" height="19.2"/>
	<path d="M170.6,436.8V455h-18.2v-18.2H170.6 M171.6,435.8h-20.2V456h20.2V435.8L171.6,435.8z"/>
</g>
<g>
	<rect x="151.8" y="436.3" class="st2" width="9.1" height="6.9"/>
	<path d="M160.4,436.8v5.9h-8.1v-5.9H160.4 M161.4,435.8h-10.1v7.9h10.1V435.8L161.4,435.8z"/>
</g>
<g>
	<rect x="161.9" y="436.3" class="st2" width="9.1" height="6.9"/>
	<path d="M170.6,436.8v5.9h-8.1v-5.9H170.6 M171.6,435.8h-10.1v7.9h10.1V435.8L171.6,435.8z"/>
</g>
<g>
	<line class="st3" x1="161.4" y1="435.8" x2="161.4" y2="456"/>
</g>
<g>
	<rect x="171.9" y="436.3" class="st2" width="19.2" height="19.2"/>
	<path d="M190.6,436.8V455h-18.2v-18.2H190.6 M191.6,435.8h-20.2V456h20.2V435.8L191.6,435.8z"/>
</g>
<g>
	<rect x="171.9" y="436.3" class="st2" width="9.1" height="6.9"/>
	<path d="M180.5,436.8v5.9h-8.1v-5.9H180.5 M181.5,435.8h-10.1v7.9h10.1V435.8L181.5,435.8z"/>
</g>
<g>
	<rect x="182" y="436.3" class="st2" width="9.1" height="6.9"/>
	<path d="M190.6,436.8v5.9h-8.1v-5.9H190.6 M191.6,435.8h-10.1v7.9h10.1V435.8L191.6,435.8z"/>
</g>
<g>
	<line class="st3" x1="181.5" y1="435.8" x2="181.5" y2="456"/>
</g>
<g>
	<rect x="440" y="378.8" class="st2" width="18.6" height="18.6"/>
	<path d="M458,379.3v17.6h-17.6v-17.6H458 M459,378.3h-19.6v19.6H459V378.3L459,378.3z"/>
</g>
<g>
	<rect x="440" y="378.8" class="st2" width="8.8" height="6.7"/>
	<path d="M448.2,379.3v5.7h-7.8v-5.7H448.2 M449.2,378.3h-9.8v7.7h9.8V378.3L449.2,378.3z"/>
</g>
<g>
	<rect x="449.7" y="378.8" class="st2" width="8.8" height="6.7"/>
	<path d="M458,379.3v5.7h-7.8v-5.7H458 M459,378.3h-9.8v7.7h9.8V378.3L459,378.3z"/>
</g>
<g>
	<line class="st3" x1="449.2" y1="378.3" x2="449.2" y2="397.9"/>
</g>
<g>
	<rect x="459.5" y="378.8" class="st2" width="18.6" height="18.6"/>
	<path d="M477.6,379.3v17.6H460v-17.6H477.6 M478.6,378.3H459v19.6h19.6V378.3L478.6,378.3z"/>
</g>
<g>
	<rect x="459.5" y="378.8" class="st2" width="8.8" height="6.7"/>
	<path d="M467.8,379.3v5.7H460v-5.7H467.8 M468.8,378.3H459v7.7h9.8V378.3L468.8,378.3z"/>
</g>
<g>
	<rect x="469.3" y="378.8" class="st2" width="8.8" height="6.7"/>
	<path d="M477.6,379.3v5.7h-7.8v-5.7H477.6 M478.6,378.3h-9.8v7.7h9.8V378.3L478.6,378.3z"/>
</g>
<g>
	<line class="st3" x1="468.8" y1="378.3" x2="468.8" y2="397.9"/>
</g>
<g>
	<rect x="440" y="398.2" class="st2" width="18.6" height="18.6"/>
	<path d="M458,398.7v17.6h-17.6v-17.6H458 M459,397.7h-19.6v19.6H459V397.7L459,397.7z"/>
</g>
<g>
	<rect x="440" y="398.2" class="st2" width="8.8" height="6.7"/>
	<path d="M448.2,398.7v5.7h-7.8v-5.7H448.2 M449.2,397.7h-9.8v7.7h9.8V397.7L449.2,397.7z"/>
</g>
<g>
	<rect x="449.7" y="398.2" class="st2" width="8.8" height="6.7"/>
	<path d="M458,398.7v5.7h-7.8v-5.7H458 M459,397.7h-9.8v7.7h9.8V397.7L459,397.7z"/>
</g>
<g>
	<line class="st3" x1="449.2" y1="397.7" x2="449.2" y2="417.3"/>
</g>
<g>
	<rect x="459.5" y="398.2" class="st2" width="18.6" height="18.6"/>
	<path d="M477.6,398.7v17.6H460v-17.6H477.6 M478.6,397.7H459v19.6h19.6V397.7L478.6,397.7z"/>
</g>
<g>
	<rect x="459.5" y="398.2" class="st2" width="8.8" height="6.7"/>
	<path d="M467.8,398.7v5.7H460v-5.7H467.8 M468.8,397.7H459v7.7h9.8V397.7L468.8,397.7z"/>
</g>
<g>
	<rect x="469.3" y="398.2" class="st2" width="8.8" height="6.7"/>
	<path d="M477.6,398.7v5.7h-7.8v-5.7H477.6 M478.6,397.7h-9.8v7.7h9.8V397.7L478.6,397.7z"/>
</g>
<g>
	<line class="st3" x1="468.8" y1="397.7" x2="468.8" y2="417.3"/>
</g>
<g>
	<rect x="440" y="417.7" class="st2" width="18.6" height="18.6"/>
	<path d="M458,418.2v17.6h-17.6v-17.6H458 M459,417.2h-19.6v19.6H459V417.2L459,417.2z"/>
</g>
<g>
	<rect x="440" y="417.7" class="st2" width="8.8" height="6.7"/>
	<path d="M448.2,418.2v5.7h-7.8v-5.7H448.2 M449.2,417.2h-9.8v7.7h9.8V417.2L449.2,417.2z"/>
</g>
<g>
	<rect x="449.7" y="417.7" class="st2" width="8.8" height="6.7"/>
	<path d="M458,418.2v5.7h-7.8v-5.7H458 M459,417.2h-9.8v7.7h9.8V417.2L459,417.2z"/>
</g>
<g>
	<line class="st3" x1="449.2" y1="417.2" x2="449.2" y2="436.7"/>
</g>
<g>
	<rect x="459.5" y="417.4" class="st2" width="18.6" height="18.6"/>
	<path d="M477.6,417.9v17.6H460v-17.6H477.6 M478.6,416.9H459v19.6h19.6V416.9L478.6,416.9z"/>
</g>
<g>
	<rect x="459.5" y="417.4" class="st2" width="8.8" height="6.7"/>
	<path d="M467.8,417.9v5.7H460v-5.7H467.8 M468.8,416.9H459v7.7h9.8V416.9L468.8,416.9z"/>
</g>
<g>
	<rect x="469.3" y="417.4" class="st2" width="8.8" height="6.7"/>
	<path d="M477.6,417.9v5.7h-7.8v-5.7H477.6 M478.6,416.9h-9.8v7.7h9.8V416.9L478.6,416.9z"/>
</g>
<g>
	<line class="st3" x1="468.8" y1="416.9" x2="468.8" y2="436.5"/>
</g>
<g>
	<rect x="440" y="437.1" class="st2" width="18.6" height="18.6"/>
	<path d="M458,437.6v17.6h-17.6v-17.6H458 M459,436.6h-19.6v19.6H459V436.6L459,436.6z"/>
</g>
<g>
	<rect x="440" y="437.1" class="st2" width="8.8" height="6.7"/>
	<path d="M448.2,437.6v5.7h-7.8v-5.7H448.2 M449.2,436.6h-9.8v7.7h9.8V436.6L449.2,436.6z"/>
</g>
<g>
	<rect x="449.7" y="437.1" class="st2" width="8.8" height="6.7"/>
	<path d="M458,437.6v5.7h-7.8v-5.7H458 M459,436.6h-9.8v7.7h9.8V436.6L459,436.6z"/>
</g>
<g>
	<line class="st3" x1="449.2" y1="436.6" x2="449.2" y2="456.2"/>
</g>
<g>
	<rect x="459.5" y="437.1" class="st2" width="18.6" height="18.6"/>
	<path d="M477.6,437.6v17.6H460v-17.6H477.6 M478.6,436.6H459v19.6h19.6V436.6L478.6,436.6z"/>
</g>
<g>
	<rect x="459.5" y="437.1" class="st2" width="8.8" height="6.7"/>
	<path d="M467.8,437.6v5.7H460v-5.7H467.8 M468.8,436.6H459v7.7h9.8V436.6L468.8,436.6z"/>
</g>
<g>
	<rect x="469.3" y="437.1" class="st2" width="8.8" height="6.7"/>
	<path d="M477.6,437.6v5.7h-7.8v-5.7H477.6 M478.6,436.6h-9.8v7.7h9.8V436.6L478.6,436.6z"/>
</g>
<g>
	<line class="st3" x1="468.8" y1="436.6" x2="468.8" y2="456.2"/>
</g>
<g>
	<rect x="47" y="408.1" class="st2" width="38" height="28.4"/>
	<path d="M84.5,408.6V436h-37v-27.4H84.5 M85.5,407.6h-39V437h39V407.6L85.5,407.6z"/>
</g>
<g>
	<rect x="47" y="408.1" class="st2" width="18.5" height="10.5"/>
	<path d="M65,408.6v9.5H47.5v-9.5H65 M66,407.6H46.5v11.5H66V407.6L66,407.6z"/>
</g>
<g>
	<rect x="66.5" y="408.1" class="st2" width="18.5" height="10.5"/>
	<path d="M84.5,408.6v9.5H67v-9.5H84.5 M85.5,407.6H66v11.5h19.5V407.6L85.5,407.6z"/>
</g>
<g>
	<line class="st3" x1="66" y1="407.6" x2="66" y2="437"/>
</g>
<g>
	<rect x="85.7" y="408.1" class="st2" width="38" height="28.4"/>
	<path d="M123.1,408.6V436h-37v-27.4H123.1 M124.1,407.6h-39V437h39V407.6L124.1,407.6z"/>
</g>
<g>
	<rect x="85.7" y="408.1" class="st2" width="18.5" height="10.5"/>
	<path d="M103.6,408.6v9.5H86.2v-9.5H103.6 M104.6,407.6H85.2v11.5h19.5V407.6L104.6,407.6z"/>
</g>
<g>
	<rect x="105.1" y="408.1" class="st2" width="18.5" height="10.5"/>
	<path d="M123.1,408.6v9.5h-17.5v-9.5H123.1 M124.1,407.6h-19.5v11.5h19.5V407.6L124.1,407.6z"/>
</g>
<g>
	<line class="st3" x1="104.6" y1="407.6" x2="104.6" y2="437"/>
</g>
<g>
	<rect x="47" y="436.6" class="st2" width="38" height="28.4"/>
	<path d="M84.5,437.1v27.4h-37v-27.4H84.5 M85.5,436.1h-39v29.4h39V436.1L85.5,436.1z"/>
</g>
<g>
	<rect x="47" y="436.6" class="st2" width="18.5" height="10.5"/>
	<path d="M65,437.1v9.5H47.5v-9.5H65 M66,436.1H46.5v11.5H66V436.1L66,436.1z"/>
</g>
<g>
	<rect x="66.5" y="436.6" class="st2" width="18.5" height="10.5"/>
	<path d="M84.5,437.1v9.5H67v-9.5H84.5 M85.5,436.1H66v11.5h19.5V436.1L85.5,436.1z"/>
</g>
<g>
	<line class="st3" x1="66" y1="436.1" x2="66" y2="465.5"/>
</g>
<g>
	<rect x="85.7" y="436.6" class="st2" width="38" height="28.4"/>
	<path d="M123.1,437.1v27.4h-37v-27.4H123.1 M124.1,436.1h-39v29.4h39V436.1L124.1,436.1z"/>
</g>
<g>
	<rect x="85.7" y="436.6" class="st2" width="18.5" height="10.5"/>
	<path d="M103.6,437.1v9.5H86.2v-9.5H103.6 M104.6,436.1H85.2v11.5h19.5V436.1L104.6,436.1z"/>
</g>
<g>
	<rect x="105.1" y="436.6" class="st2" width="18.5" height="10.5"/>
	<path d="M123.1,437.1v9.5h-17.5v-9.5H123.1 M124.1,436.1h-19.5v11.5h19.5V436.1L124.1,436.1z"/>
</g>
<g>
	<line class="st3" x1="104.6" y1="436.1" x2="104.6" y2="465.5"/>
</g>
<g>
	<rect x="47" y="465.5" class="st2" width="38" height="28.4"/>
	<path d="M84.5,466v27.4h-37V466H84.5 M85.5,465h-39v29.4h39V465L85.5,465z"/>
</g>
<g>
	<rect x="47" y="465.5" class="st2" width="18.5" height="10.5"/>
	<path d="M65,466v9.5H47.5V466H65 M66,465H46.5v11.5H66V465L66,465z"/>
</g>
<g>
	<rect x="66.5" y="465.5" class="st2" width="18.5" height="10.5"/>
	<path d="M84.5,466v9.5H67V466H84.5 M85.5,465H66v11.5h19.5V465L85.5,465z"/>
</g>
<g>
	<line class="st3" x1="66" y1="465" x2="66" y2="494.3"/>
</g>
<g>
	<rect x="85.7" y="465.5" class="st2" width="38" height="28.4"/>
	<path d="M123.1,466v27.4h-37V466H123.1 M124.1,465h-39v29.4h39V465L124.1,465z"/>
</g>
<g>
	<rect x="85.7" y="465.5" class="st2" width="18.5" height="10.5"/>
	<path d="M103.6,466v9.5H86.2V466H103.6 M104.6,465H85.2v11.5h19.5V465L104.6,465z"/>
</g>
<g>
	<rect x="105.1" y="465.5" class="st2" width="18.5" height="10.5"/>
	<path d="M123.1,466v9.5h-17.5V466H123.1 M124.1,465h-19.5v11.5h19.5V465L124.1,465z"/>
</g>
<g>
	<line class="st3" x1="104.6" y1="465" x2="104.6" y2="494.3"/>
</g>
<g>
	<rect x="47" y="494.8" class="st2" width="38" height="28.4"/>
	<path d="M84.5,495.3v27.4h-37v-27.4H84.5 M85.5,494.3h-39v29.4h39V494.3L85.5,494.3z"/>
</g>
<g>
	<rect x="47" y="494.8" class="st2" width="18.5" height="10.5"/>
	<path d="M65,495.3v9.5H47.5v-9.5H65 M66,494.3H46.5v11.5H66V494.3L66,494.3z"/>
</g>
<g>
	<rect x="66.5" y="494.8" class="st2" width="18.5" height="10.5"/>
	<path d="M84.5,495.3v9.5H67v-9.5H84.5 M85.5,494.3H66v11.5h19.5V494.3L85.5,494.3z"/>
</g>
<g>
	<line class="st3" x1="66" y1="494.3" x2="66" y2="523.7"/>
</g>
<g>
	<rect x="85.7" y="494.8" class="st2" width="38" height="28.4"/>
	<path d="M123.1,495.3v27.4h-37v-27.4H123.1 M124.1,494.3h-39v29.4h39V494.3L124.1,494.3z"/>
</g>
<g>
	<rect x="85.7" y="494.8" class="st2" width="18.5" height="10.5"/>
	<path d="M103.6,495.3v9.5H86.2v-9.5H103.6 M104.6,494.3H85.2v11.5h19.5V494.3L104.6,494.3z"/>
</g>
<g>
	<rect x="105.1" y="494.8" class="st2" width="18.5" height="10.5"/>
	<path d="M123.1,495.3v9.5h-17.5v-9.5H123.1 M124.1,494.3h-19.5v11.5h19.5V494.3L124.1,494.3z"/>
</g>
<g>
	<line class="st3" x1="104.6" y1="494.3" x2="104.6" y2="523.7"/>
</g>
<g>
	<rect x="495.7" y="410.7" class="st2" width="44.4" height="29.4"/>
	<path d="M539.6,411.2v28.4h-43.4v-28.4H539.6 M540.6,410.2h-45.4v30.4h45.4V410.2L540.6,410.2z"/>
</g>
<g>
	<rect x="495.7" y="410.7" class="st2" width="21.7" height="10.9"/>
	<path d="M516.9,411.2v9.9h-20.7v-9.9H516.9 M517.9,410.2h-22.7v11.9h22.7V410.2L517.9,410.2z"/>
</g>
<g>
	<rect x="518.4" y="410.7" class="st2" width="21.7" height="10.9"/>
	<path d="M539.6,411.2v9.9h-20.7v-9.9H539.6 M540.6,410.2h-22.7v11.9h22.7V410.2L540.6,410.2z"/>
</g>
<g>
	<line class="st3" x1="517.9" y1="410.2" x2="517.9" y2="440.6"/>
</g>
<g>
	<rect x="540.6" y="410.7" class="st2" width="44.4" height="29.4"/>
	<path d="M584.5,411.2v28.4h-43.4v-28.4H584.5 M585.5,410.2h-45.4v30.4h45.4V410.2L585.5,410.2z"/>
</g>
<g>
	<rect x="540.6" y="410.7" class="st2" width="21.7" height="10.9"/>
	<path d="M561.8,411.2v9.9h-20.7v-9.9H561.8 M562.8,410.2h-22.7v11.9h22.7V410.2L562.8,410.2z"/>
</g>
<g>
	<rect x="563.3" y="410.7" class="st2" width="21.7" height="10.9"/>
	<path d="M584.5,411.2v9.9h-20.7v-9.9H584.5 M585.5,410.2h-22.7v11.9h22.7V410.2L585.5,410.2z"/>
</g>
<g>
	<line class="st3" x1="562.8" y1="410.2" x2="562.8" y2="440.6"/>
</g>
<g>
	<rect x="495.7" y="440.2" class="st2" width="44.4" height="29.4"/>
	<path d="M539.6,440.7v28.4h-43.4v-28.4H539.6 M540.6,439.7h-45.4v30.4h45.4V439.7L540.6,439.7z"/>
</g>
<g>
	<rect x="495.7" y="440.2" class="st2" width="21.7" height="10.9"/>
	<path d="M516.9,440.7v9.9h-20.7v-9.9H516.9 M517.9,439.7h-22.7v11.9h22.7V439.7L517.9,439.7z"/>
</g>
<g>
	<rect x="518.4" y="440.2" class="st2" width="21.7" height="10.9"/>
	<path d="M539.6,440.7v9.9h-20.7v-9.9H539.6 M540.6,439.7h-22.7v11.9h22.7V439.7L540.6,439.7z"/>
</g>
<g>
	<line class="st3" x1="517.9" y1="439.7" x2="517.9" y2="470.1"/>
</g>
<g>
	<rect x="540.6" y="440.2" class="st2" width="44.4" height="29.4"/>
	<path d="M584.5,440.7v28.4h-43.4v-28.4H584.5 M585.5,439.7h-45.4v30.4h45.4V439.7L585.5,439.7z"/>
</g>
<g>
	<rect x="540.6" y="440.2" class="st2" width="21.7" height="10.9"/>
	<path d="M561.8,440.7v9.9h-20.7v-9.9H561.8 M562.8,439.7h-22.7v11.9h22.7V439.7L562.8,439.7z"/>
</g>
<g>
	<rect x="563.3" y="440.2" class="st2" width="21.7" height="10.9"/>
	<path d="M584.5,440.7v9.9h-20.7v-9.9H584.5 M585.5,439.7h-22.7v11.9h22.7V439.7L585.5,439.7z"/>
</g>
<g>
	<line class="st3" x1="562.8" y1="439.7" x2="562.8" y2="470.1"/>
</g>
<g>
	<rect x="495.7" y="470.1" class="st2" width="44.4" height="29.4"/>
	<path d="M539.6,470.6V499h-43.4v-28.4H539.6 M540.6,469.6h-45.4V500h45.4V469.6L540.6,469.6z"/>
</g>
<g>
	<rect x="495.7" y="470.1" class="st2" width="21.7" height="10.9"/>
	<path d="M516.9,470.6v9.9h-20.7v-9.9H516.9 M517.9,469.6h-22.7v11.9h22.7V469.6L517.9,469.6z"/>
</g>
<g>
	<rect x="518.4" y="470.1" class="st2" width="21.7" height="10.9"/>
	<path d="M539.6,470.6v9.9h-20.7v-9.9H539.6 M540.6,469.6h-22.7v11.9h22.7V469.6L540.6,469.6z"/>
</g>
<g>
	<line class="st3" x1="517.9" y1="469.6" x2="517.9" y2="500"/>
</g>
<g>
	<rect x="540.6" y="470.1" class="st2" width="44.4" height="29.4"/>
	<path d="M584.5,470.6V499h-43.4v-28.4H584.5 M585.5,469.6h-45.4V500h45.4V469.6L585.5,469.6z"/>
</g>
<g>
	<rect x="540.6" y="470.1" class="st2" width="21.7" height="10.9"/>
	<path d="M561.8,470.6v9.9h-20.7v-9.9H561.8 M562.8,469.6h-22.7v11.9h22.7V469.6L562.8,469.6z"/>
</g>
<g>
	<rect x="563.3" y="470.1" class="st2" width="21.7" height="10.9"/>
	<path d="M584.5,470.6v9.9h-20.7v-9.9H584.5 M585.5,469.6h-22.7v11.9h22.7V469.6L585.5,469.6z"/>
</g>
<g>
	<line class="st3" x1="562.8" y1="469.6" x2="562.8" y2="500"/>
</g>
<g>
	<rect x="495.7" y="500.5" class="st2" width="44.4" height="29.4"/>
	<path d="M539.6,501v28.4h-43.4V501H539.6 M540.6,500h-45.4v30.4h45.4V500L540.6,500z"/>
</g>
<g>
	<rect x="495.7" y="500.5" class="st2" width="21.7" height="10.9"/>
	<path d="M516.9,501v9.9h-20.7V501H516.9 M517.9,500h-22.7v11.9h22.7V500L517.9,500z"/>
</g>
<g>
	<rect x="518.4" y="500.5" class="st2" width="21.7" height="10.9"/>
	<path d="M539.6,501v9.9h-20.7V501H539.6 M540.6,500h-22.7v11.9h22.7V500L540.6,500z"/>
</g>
<g>
	<line class="st3" x1="517.9" y1="500" x2="517.9" y2="530.4"/>
</g>
<g>
	<rect x="540.6" y="500.5" class="st2" width="44.4" height="29.4"/>
	<path d="M584.5,501v28.4h-43.4V501H584.5 M585.5,500h-45.4v30.4h45.4V500L585.5,500z"/>
</g>
<g>
	<rect x="540.6" y="500.5" class="st2" width="21.7" height="10.9"/>
	<path d="M561.8,501v9.9h-20.7V501H561.8 M562.8,500h-22.7v11.9h22.7V500L562.8,500z"/>
</g>
<g>
	<rect x="563.3" y="500.5" class="st2" width="21.7" height="10.9"/>
	<path d="M584.5,501v9.9h-20.7V501H584.5 M585.5,500h-22.7v11.9h22.7V500L585.5,500z"/>
</g>
<g>
	<line class="st3" x1="562.8" y1="500" x2="562.8" y2="530.4"/>
</g>
<path class="st4" d="M208.7,214.7c0-30.7,53.5-55.6,119.5-55.6"/>
<path class="st4" d="M427.2,214.7c0-30.7-46.8-55.6-104.7-55.6"/>
<rect x="236.9" y="217.6" class="st3" width="154.5" height="8.8"/>
<ellipse class="st3" cx="256.8" cy="222" rx="6.2" ry="2.2"/>
<ellipse class="st3" cx="281.7" cy="222" rx="6.2" ry="2.2"/>
<ellipse class="st3" cx="306.7" cy="222" rx="6.2" ry="2.2"/>
<ellipse class="st3" cx="327" cy="222" rx="6.2" ry="2.2"/>
<ellipse class="st3" cx="347.2" cy="222" rx="6.2" ry="2.2"/>
<ellipse class="st3" cx="372.2" cy="222" rx="6.2" ry="2.2"/>
<rect x="145.8" y="291.7" class="st3" width="57.7" height="5.7"/>
<ellipse class="st3" cx="153.3" cy="294.5" rx="2.3" ry="1.4"/>
<ellipse class="st3" cx="162.6" cy="294.5" rx="2.3" ry="1.4"/>
<ellipse class="st3" cx="171.9" cy="294.5" rx="2.3" ry="1.4"/>
<ellipse class="st3" cx="179.5" cy="294.5" rx="2.3" ry="1.4"/>
<ellipse class="st3" cx="187" cy="294.5" rx="2.3" ry="1.4"/>
<ellipse class="st3" cx="196.4" cy="294.5" rx="2.3" ry="1.4"/>
<rect x="436.7" y="289.7" class="st3" width="41.2" height="7.5"/>
<ellipse class="st3" cx="442" cy="293.5" rx="1.7" ry="1.9"/>
<ellipse class="st3" cx="448.6" cy="293.5" rx="1.7" ry="1.9"/>
<ellipse class="st3" cx="455.3" cy="293.5" rx="1.7" ry="1.9"/>
<ellipse class="st3" cx="460.7" cy="293.5" rx="1.7" ry="1.9"/>
<ellipse class="st3" cx="466.1" cy="293.5" rx="1.7" ry="1.9"/>
<ellipse class="st3" cx="472.7" cy="293.5" rx="1.7" ry="1.9"/>
<rect x="147.7" y="297.3" class="st3" width="52.4" height="8.5"/>
<circle class="st3" cx="154.4" cy="301.5" r="2.1"/>
<circle class="st3" cx="162.9" cy="301.5" r="2.1"/>
<circle class="st3" cx="171.4" cy="301.5" r="2.1"/>
<circle class="st3" cx="178.3" cy="301.5" r="2.1"/>
<circle class="st3" cx="185.1" cy="301.5" r="2.1"/>
<circle class="st3" cx="193.6" cy="301.5" r="2.1"/>
<rect x="187.5" y="249.6" transform="matrix(6.123234e-17 -1 1 6.123234e-17 -40.2036 467.5271)" class="st3" width="52.4" height="8.5"/>
<circle class="st3" cx="213.7" cy="273.3" r="2.1"/>
<circle class="st3" cx="213.7" cy="264.8" r="2.1"/>
<circle class="st3" cx="213.7" cy="256.4" r="2.1"/>
<circle class="st3" cx="213.7" cy="249.5" r="2.1"/>
<circle class="st3" cx="213.7" cy="242.6" r="2.1"/>
<circle class="st3" cx="213.7" cy="234.2" r="2.1"/>
<rect x="187.5" y="301.6" transform="matrix(6.123234e-17 -1 1 6.123234e-17 -92.1965 519.52)" class="st3" width="52.4" height="8.5"/>
<circle class="st3" cx="213.7" cy="325.3" r="2.1"/>
<circle class="st3" cx="213.7" cy="316.8" r="2.1"/>
<circle class="st3" cx="213.7" cy="308.4" r="2.1"/>
<circle class="st3" cx="213.7" cy="301.5" r="2.1"/>
<circle class="st3" cx="213.7" cy="294.6" r="2.1"/>
<circle class="st3" cx="213.7" cy="286.2" r="2.1"/>
<rect x="187.5" y="354" transform="matrix(6.123234e-17 -1 1 6.123234e-17 -144.5374 571.861)" class="st3" width="52.4" height="8.5"/>
<circle class="st3" cx="213.7" cy="377.7" r="2.1"/>
<circle class="st3" cx="213.7" cy="369.2" r="2.1"/>
<circle class="st3" cx="213.7" cy="360.7" r="2.1"/>
<circle class="st3" cx="213.7" cy="353.8" r="2.1"/>
<circle class="st3" cx="213.7" cy="347" r="2.1"/>
<circle class="st3" cx="213.7" cy="338.5" r="2.1"/>
<rect x="187.5" y="405.6" transform="matrix(6.123234e-17 -1 1 6.123234e-17 -196.2178 623.5413)" class="st3" width="52.4" height="8.5"/>
<circle class="st3" cx="213.7" cy="429.3" r="2.1"/>
<circle class="st3" cx="213.7" cy="420.9" r="2.1"/>
<circle class="st3" cx="213.7" cy="412.4" r="2.1"/>
<circle class="st3" cx="213.7" cy="405.5" r="2.1"/>
<circle class="st3" cx="213.7" cy="398.7" r="2.1"/>
<circle class="st3" cx="213.7" cy="390.2" r="2.1"/>
<rect x="394.7" y="247.4" transform="matrix(6.123234e-17 -1 1 6.123234e-17 169.2602 672.5168)" class="st3" width="52.4" height="8.5"/>
<circle class="st3" cx="420.9" cy="271.1" r="2.1"/>
<circle class="st3" cx="420.9" cy="262.6" r="2.1"/>
<circle class="st3" cx="420.9" cy="254.1" r="2.1"/>
<circle class="st3" cx="420.9" cy="247.3" r="2.1"/>
<circle class="st3" cx="420.9" cy="240.4" r="2.1"/>
<circle class="st3" cx="420.9" cy="231.9" r="2.1"/>
<rect x="394.7" y="297.3" transform="matrix(6.123234e-17 -1 1 6.123234e-17 119.387 722.3899)" class="st3" width="52.4" height="8.5"/>
<circle class="st3" cx="420.9" cy="321" r="2.1"/>
<circle class="st3" cx="420.9" cy="312.5" r="2.1"/>
<circle class="st3" cx="420.9" cy="304" r="2.1"/>
<circle class="st3" cx="420.9" cy="297.1" r="2.1"/>
<circle class="st3" cx="420.9" cy="290.3" r="2.1"/>
<circle class="st3" cx="420.9" cy="281.8" r="2.1"/>
<rect x="394.7" y="350.7" transform="matrix(6.123234e-17 -1 1 6.123234e-17 65.9926 775.7844)" class="st3" width="52.4" height="8.5"/>
<circle class="st3" cx="420.9" cy="374.4" r="2.1"/>
<circle class="st3" cx="420.9" cy="365.9" r="2.1"/>
<circle class="st3" cx="420.9" cy="357.4" r="2.1"/>
<circle class="st3" cx="420.9" cy="350.5" r="2.1"/>
<circle class="st3" cx="420.9" cy="343.7" r="2.1"/>
<circle class="st3" cx="420.9" cy="335.2" r="2.1"/>
<rect x="393.5" y="403.4" transform="matrix(6.123234e-17 -1 1 6.123234e-17 12.0526 827.3376)" class="st3" width="52.4" height="8.5"/>
<circle class="st3" cx="419.7" cy="427.1" r="2.1"/>
<circle class="st3" cx="419.7" cy="418.6" r="2.1"/>
<circle class="st3" cx="419.7" cy="410.1" r="2.1"/>
<circle class="st3" cx="419.7" cy="403.3" r="2.1"/>
<circle class="st3" cx="419.7" cy="396.4" r="2.1"/>
<circle class="st3" cx="419.7" cy="387.9" r="2.1"/>
<rect x="394.7" y="453.9" transform="matrix(6.123234e-17 -1 1 6.123234e-17 -37.2961 879.0731)" class="st3" width="52.4" height="8.5"/>
<circle class="st3" cx="420.9" cy="477.6" r="2.1"/>
<circle class="st3" cx="420.9" cy="469.2" r="2.1"/>
<circle class="st3" cx="420.9" cy="460.7" r="2.1"/>
<circle class="st3" cx="420.9" cy="453.8" r="2.1"/>
<circle class="st3" cx="420.9" cy="447" r="2.1"/>
<circle class="st3" cx="420.9" cy="438.5" r="2.1"/>
<rect x="187.5" y="458.6" transform="matrix(6.123234e-17 -1 1 6.123234e-17 -249.1475 676.4711)" class="st3" width="52.4" height="8.5"/>
<circle class="st3" cx="213.7" cy="482.3" r="2.1"/>
<circle class="st3" cx="213.7" cy="473.8" r="2.1"/>
<circle class="st3" cx="213.7" cy="465.3" r="2.1"/>
<circle class="st3" cx="213.7" cy="458.5" r="2.1"/>
<circle class="st3" cx="213.7" cy="451.6" r="2.1"/>
<circle class="st3" cx="213.7" cy="443.1" r="2.1"/>
<rect x="430.8" y="297.6" class="st3" width="52.4" height="8.5"/>
<circle class="st3" cx="437.5" cy="301.9" r="2.1"/>
<circle class="st3" cx="446" cy="301.9" r="2.1"/>
<circle class="st3" cx="454.5" cy="301.9" r="2.1"/>
<circle class="st3" cx="461.3" cy="301.9" r="2.1"/>
<circle class="st3" cx="468.2" cy="301.9" r="2.1"/>
<circle class="st3" cx="476.7" cy="301.9" r="2.1"/>
<line class="st3" x1="208.7" y1="214.7" x2="427.2" y2="214.7"/>
<rect y="540.8" class="st5" width="960" height="19.2"/>
<path class="st6" d="M410.6,150.9H223.2c-8,0-14.5,6.5-14.5,14.5v34.8c0,8,6.5,14.5,14.5,14.5h187.4c8,0,14.5-6.5,14.5-14.5v-34.8
	C425.1,157.4,418.6,150.9,410.6,150.9z"/>
<text transform="matrix(0.5729 0 0 1 118 80.7349)" class="st7 st8">Issues With Philadelphia Public Schools</text>
<rect x="904.8" y="511.2" class="st9" width="4.8" height="32.4"/>
<rect x="894.2" y="478.8" transform="matrix(0.7071 0.7071 -0.7071 0.7071 609.6622 -489.6023)" class="st9" width="3.2" height="24.6"/>
<rect x="933.4" y="475.8" transform="matrix(-0.7861 0.6181 -0.6181 -0.7861 1974.8943 304.0367)" class="st9" width="2.9" height="35.9"/>
<circle class="st9" cx="914.4" cy="466.1" r="9.7"/>
<rect x="924.5" y="510.3" transform="matrix(0.9337 -0.358 0.358 0.9337 -127.0232 366.7104)" class="st9" width="5" height="32.4"/>
<path class="st9" d="M915,515.3h-1.1c-6.6,0-12-5.4-12-12V488c0-6.6,5.4-12,12-12h1.1c6.6,0,12,5.4,12,12v15.2
	C927,509.9,921.6,515.3,915,515.3z"/>
<rect x="838.6" y="511.2" class="st10" width="4.8" height="32.4"/>
<rect x="828" y="478.8" transform="matrix(0.7071 0.7071 -0.7071 0.7071 590.2782 -442.8051)" class="st10" width="3.2" height="24.6"/>
<rect x="867.2" y="475.8" transform="matrix(-0.7861 0.6181 -0.6181 -0.7861 1856.6864 344.9414)" class="st10" width="2.9" height="35.9"/>
<circle class="st10" cx="848.3" cy="466.1" r="9.7"/>
<rect x="858.3" y="510.3" transform="matrix(0.9337 -0.358 0.358 0.9337 -131.4084 343.0205)" class="st10" width="5" height="32.4"/>
<path class="st10" d="M848.8,515.3h-1.1c-6.6,0-12-5.4-12-12V488c0-6.6,5.4-12,12-12h1.1c6.6,0,12,5.4,12,12v15.2
	C860.8,509.9,855.4,515.3,848.8,515.3z"/>
<rect x="700.3" y="511.9" class="st11" width="4.8" height="32.4"/>
<rect x="689.7" y="479.5" transform="matrix(0.7071 0.7071 -0.7071 0.7071 550.2648 -344.8015)" class="st11" width="3.2" height="24.6"/>
<rect x="728.9" y="476.5" transform="matrix(-0.7861 0.6181 -0.6181 -0.7861 1610.0857 431.6779)" class="st11" width="2.9" height="35.9"/>
<circle class="st11" cx="710" cy="466.8" r="9.7"/>
<rect x="720" y="511" transform="matrix(0.9337 -0.358 0.358 0.9337 -140.8239 293.5592)" class="st11" width="5" height="32.4"/>
<path class="st11" d="M710.5,516h-1.1c-6.6,0-12-5.4-12-12v-15.2c0-6.6,5.4-12,12-12h1.1c6.6,0,12,5.4,12,12V504
	C722.5,510.6,717.1,516,710.5,516z"/>
<rect x="772.4" y="511.3" class="st12" width="4.8" height="32.4"/>
<rect x="761.8" y="478.9" transform="matrix(0.7071 0.7071 -0.7071 0.7071 570.9455 -395.9866)" class="st12" width="3.2" height="24.6"/>
<rect x="801" y="475.8" transform="matrix(-0.7861 0.6181 -0.6181 -0.7861 1738.5234 385.9758)" class="st12" width="2.9" height="35.9"/>
<circle class="st12" cx="782.1" cy="466.2" r="9.7"/>
<rect x="792.1" y="510.3" transform="matrix(0.9337 -0.358 0.358 0.9337 -135.8197 319.3354)" class="st12" width="5" height="32.4"/>
<path class="st12" d="M782.6,515.3h-1.1c-6.6,0-12-5.4-12-12v-15.2c0-6.6,5.4-12,12-12h1.1c6.6,0,12,5.4,12,12v15.2
	C794.6,509.9,789.2,515.3,782.6,515.3z"/>
</svg>
